<?xml version="1.0" encoding="UTF-8"?>
<svg id="_xF91C_迹_x5F_1" xmlns="http://www.w3.org/2000/svg" version="1.1" xmlns:xlink="http://www.w3.org/1999/xlink" viewBox="0 0 858.5144389 273">
  <!-- Generator: Adobe Illustrator 29.1.0, SVG Export Plug-In . SVG Version: 2.1.0 Build 142)  -->
  <defs>
    <linearGradient id="_무제_그라디언트_39" data-name="무제 그라디언트 39" x1="4.1002975" y1="251.3770086" x2="264.9696949" y2="18.6811935" gradientUnits="userSpaceOnUse">
      <stop offset="0" stop-color="#008bae"/>
      <stop offset=".9944134" stop-color="#009192"/>
    </linearGradient>
    <linearGradient id="_무제_그라디언트_24" data-name="무제 그라디언트 24" x1="13.7218035" y1="269.6888257" x2="191.1129747" y2="105.514791" gradientUnits="userSpaceOnUse">
      <stop offset=".0049541" stop-color="#008bae"/>
      <stop offset="1" stop-color="#009192"/>
    </linearGradient>
  </defs>
  <g>
    <g>
      <path d="M380.0693681,156.670878c-8.9659278-3.2932891-17.3834919-6.6766776-25.248032-10.1543081-7.8681648-3.4729701-14.6820628-7.5466031-20.4453187-12.212096-5.7627381-4.6654929-10.3381316-10.2910107-13.7215201-16.8775889-3.387531-6.5865782-5.077154-14.7250413-5.077154-24.4247098,0-12.0748756,1.9210853-22.4093825,5.7632559-31.011288,3.8421706-8.5972451,9.1466445-15.6426055,15.9170462-21.1314206,6.7667771-5.4882974,14.8622616-9.5577878,24.2874894-12.212096,9.4210852-2.6501657,19.8021953-3.979391,31.1485084-3.979391,11.1573114,0,21.448322,1.3722038,30.8735498,4.1166114,9.4210852,2.7444076,17.5165698,6.7709196,24.2874894,12.0748756,6.7667771,5.3086163,12.0748756,11.7579742,15.9170462,19.3480735,3.8421706,7.593724,5.7632559,16.2386079,5.7632559,25.9336161v1.097763c-.1843413,3.6619718-2.0153272,5.4888152-5.4888152,5.4888152h-44.7328081c-3.6619718,0-5.4882974-1.9210853-5.4882974-5.7632559v-1.3722038c0-4.206193-1.6937655-7.7268019-5.077154-10.5654514-3.387531-2.834507-8.3704432-4.2538318-14.9565036-4.2538318-13.1731564,0-19.7592168,6.4964788-19.7592168,19.4847761,0,5.8574979,2.7438898,10.4287488,8.232705,13.7215201,5.4888152,3.2932891,14.2709195,7.0453603,26.3457951,11.2520711,10.0595484,3.4776305,19.025994,7.1354597,26.8946766,10.9771126,7.8640223,3.8421706,14.4977215,8.1902443,19.8964372,13.0359361,5.3940554,4.8498342,9.5106668,10.475352,12.3493163,16.8775889,2.834507,6.4063794,4.2538318,13.9063793,4.2538318,22.5031066,0,12.0753934-2.0583057,22.4616816-6.1749171,31.1485084-4.1166114,8.6920049-9.7421291,15.917564-16.8775889,21.68082-7.1354597,5.7632559-15.599627,10.0165699-25.3852524,12.7609775-9.7892501,2.7444076-20.3552193,4.1166114-31.6968721,4.1166114-11.1619717,0-21.5430818-1.3722038-31.1485084-4.1166114-9.6049088-2.7444076-17.9753519-6.7667771-25.1108117-12.0753934-7.1349419-5.3044738-12.7609775-11.7533139-16.8775889-19.3475557-4.1166114-7.5900993-6.1749171-16.2344654-6.1749171-25.9341339v-1.097763c.1801988-3.6578293,2.0111847-5.4888152,5.4888152-5.4888152h44.7328081c3.6578293,0,5.4888152,1.9210853,5.4888152,5.7632559v1.6466446c0,4.5753935,1.9640638,8.1431234,5.9004763,10.7031896,3.9317522,2.5642088,9.7421291,3.8421706,17.4264704,3.8421706,7.8640223,0,13.4900578-1.7843827,16.8775889-5.351077,3.3833885-3.5677299,5.077154-8.5511598,5.077154-14.9575392,0-3.8421706-1.097763-7.087821-3.2932891-9.7421291-2.1955261-2.6501657-4.9399337-4.9399337-8.2332228-6.861019-3.2932891-1.9210853-6.9081399-3.5200911-10.8398922-4.8021955-3.9364125-1.2779619-7.6413628-2.5600663-11.1148507-3.8421706Z" fill="#008bae"/>
      <path d="M664.3817095,167.6485084c0,15.5519882-2.0583057,28.4983427-6.1743993,38.831814-4.1166114,10.3386494-9.8798673,18.6184754-17.28925,24.8363709-7.4099005,6.222038-16.2862467,10.6089477-26.6202358,13.1731564-10.3386494,2.5600663-21.6373237,3.8421706-33.8929159,3.8421706-12.2592169,0-23.5112881-1.2821044-33.7551778-3.8421706-10.24855-2.5642088-19.0731149-6.9511184-26.4830154-13.1731564-7.4093827-6.2178955-13.1726386-14.4977215-17.28925-24.8363709-4.1166114-10.3334713-6.1749171-23.2798258-6.1749171-38.831814V34.2734063c0-3.6578293,1.8268434-5.4888152,5.4888152-5.4888152h44.4583674c3.8421706,0,5.7632559,1.8309859,5.7632559,5.4888152v135.2961874c0,11.3452774,2.1484051,19.6219965,6.44884,24.8363709,4.2968102,5.2133388,11.4793909,7.8210438,21.5430818,7.8210438,10.0600662,0,17.2897678-2.607705,21.6803022-7.8210438,4.3910521-5.2143744,6.5865782-13.4910935,6.5865782-24.8363709V34.2734063c0-3.6578293,1.8268434-5.4888152,5.4888152-5.4888152h44.4583674c3.8421706,0,5.7627381,1.8309859,5.7627381,5.4888152v133.3751021Z" fill="#008bae"/>
      <path d="M763.4522345,28.7845911c12.6237571,0,24.4247098,1.3292253,35.4018223,3.979391,10.9776304,2.6543082,20.5354182,7.0924813,28.6785415,13.309859,8.138463,6.222038,14.5878209,14.5023818,19.3475557,24.8363709,4.7555923,10.3386494,7.1354597,23.1897263,7.1354597,38.557891v54.0637939c0,15.5519882-2.3798674,28.4983427-7.1354597,38.831814-4.7597348,10.3386494-11.2090927,18.619511-19.3475557,24.8363709-8.1431234,6.222038-17.7009112,10.6130902-28.6785415,13.1731564-10.9771126,2.5600663-22.7780652,3.8421706-35.4018223,3.8421706h-65.8642288c-3.8421706,0-5.7632559-1.8309859-5.7632559-5.4888152V92.4532938c0-3.6578293,1.8268434-5.4888152,5.4888152-5.4888152h44.7328081c4.0223695,0,6.0376967,1.8309859,6.0376967,5.4888152v101.8149326h15.0937239c10.7927712,0,19.3475557-2.6066694,25.6596932-7.8210438,6.3116196-5.2143744,9.4676884-13.4900578,9.4676884-24.8363709v-50.2216233c0-11.3416527-3.1560687-19.6219965-9.4676884-24.8363709-6.3121375-5.2138566-14.866922-7.8210438-25.6596932-7.8210438h-71.3530439c-3.8416528,0-5.7627381-1.8268434-5.7627381-5.4888152v-38.9695522c0-3.6578293,1.9210853-5.4888152,5.7627381-5.4888152h71.6274847Z" fill="#008bae"/>
    </g>
    <g>
      <path d="M107.4247955,170.4290841c-2.078125,0-4.1904297-.2607422-6.2958984-.8066406-13.3642578-3.4677734-21.3876953-17.1132812-17.9199219-30.4775391l19.1035156-73.6279297c5.0742188-19.5556641,19.4038086-34.5722656,37.3969727-39.1889648L225.486319,4.3153146c16.4375-4.2163086,33.6401367.6738281,46.0180664,13.0839844,14.4633789,14.5019531,20.0981445,36.4233398,14.7045898,57.2104492l-10.4013672,40.0869141c-3.4677734,13.3642578-17.1137695,21.3916016-30.4775391,17.9189453-13.3647461-3.4677734-21.3876953-17.1123047-17.9199219-30.4770508l10.4013672-40.0864258c1.1347656-4.3730469-.3120117-7.5874023-1.3442383-8.9345703l-83.9897461,21.5537109c-.3891602.3378906-1.2480469,1.4013672-1.7675781,3.4033203l-19.1035156,73.6269531c-2.9213867,11.2597656-13.0664062,18.7275391-24.1816406,18.7275391ZM152.5898346,74.5843575h0Z" fill="url(#_무제_그라디언트_39)"/>
      <path d="M55.5214752,270.1691101c-12.5898438,0-24.8554688-5.0927734-34.3076172-14.5703125-14.4628906-14.5019531-20.0966797-36.4228516-14.703125-57.2099609l10.4008789-40.0849609c3.4677734-13.3652344,17.1108398-21.3945312,30.4775391-17.9199219,13.3642578,3.4667969,21.3876953,17.1123047,17.9199219,30.4765625l-10.4008789,40.0859375c-1.1347656,4.3740234.3115234,7.5888672,1.34375,8.9355469l83.9897461-21.5537109c.3891602-.3378906,1.2480469-1.4003906,1.7675781-3.4033203l19.1040039-73.6279297c3.4672852-13.3632812,17.1108398-21.3881836,30.4775391-17.9194336,13.3647461,3.4682617,21.3876953,17.112793,17.9199219,30.4780273l-19.1040039,73.6269531c-5.0737305,19.5546875-19.402832,34.5712891-37.3959961,39.1884766l-85.7773438,22.0126953c-3.8857422.9980469-7.8144531,1.4853516-11.7119141,1.4853516ZM140.1298736,198.4142273c0,.0009766-.0004883.0009766-.0004883.0009766,0,0,.0004883,0,.0004883-.0009766Z" fill="url(#_무제_그라디언트_24)"/>
    </g>
  </g>
  <rect x="-364.4420829" y="-368.8813739" width="240" height="240" fill="#e6e7e8"/>
</svg>